HIERARCHY
ROOT hip
{
  OFFSET 0 0 0
  CHANNELS 6 Xposition Yposition Zposition Zrotation Yrotation Xrotation
  JOINT abdomen
  {
    OFFSET 0 20.6881 -0.73152
    CHANNELS 3 Zrotation Xrotation Yrotation
    JOINT chest
    {
      OFFSET 0 11.7043 -0.48768
      CHANNELS 3 Zrotation Xrotation Yrotation
      JOINT neck
      {
        OFFSET 0 22.1894 -2.19456
        CHANNELS 3 Zrotation Xrotation Yrotation
        JOINT head
        {
          OFFSET -0.24384 7.07133 1.2192
          CHANNELS 3 Zrotation Xrotation Yrotation
          JOINT leftEye
          {
            OFFSET 4.14528 8.04674 8.04672
            CHANNELS 3 Zrotation Xrotation Yrotation
            End Site
            {
              OFFSET 1 0 0
            }
          }
          JOINT rightEye
          {
            OFFSET -3.6576 8.04674 8.04672
            CHANNELS 3 Zrotation Xrotation Yrotation
            End Site
            {
              OFFSET 1 0 0
            }
          }
        }
      }
      JOINT rCollar
      {
        OFFSET -2.68224 19.2634 -4.8768
        CHANNELS 3 Zrotation Xrotation Yrotation
        JOINT rShldr
        {
          OFFSET -8.77824 -1.95073 1.46304
          CHANNELS 3 Zrotation Xrotation Yrotation
          JOINT rForeArm
          {
            OFFSET -28.1742 -1.7115 0.48768
            CHANNELS 3 Zrotation Xrotation Yrotation
            JOINT rHand
            {
              OFFSET -22.5879 0.773209 7.07136
              CHANNELS 3 Zrotation Xrotation Yrotation
              JOINT rThumb1
              {
                OFFSET -1.2192 -0.487915 3.41376
                CHANNELS 3 Zrotation Xrotation Yrotation
                JOINT rThumb2
                {
                  OFFSET -3.37035 -0.52449 3.41376
                  CHANNELS 3 Zrotation Xrotation Yrotation
                  End Site
                  {
                    OFFSET -1.78271 -1.18214 1.43049
                  }
                }
              }
              JOINT rIndex1
              {
                OFFSET -7.75947 0.938293 5.60832
                CHANNELS 3 Zrotation Xrotation Yrotation
                JOINT rIndex2
                {
                  OFFSET -2.54057 -0.884171 1.56538
                  CHANNELS 3 Zrotation Xrotation Yrotation
                  End Site
                  {
                    OFFSET -1.62519 -0.234802 1.16502
                  }
                }
              }
              JOINT rMid1
              {
                OFFSET -8.24714 1.18213 3.41376
                CHANNELS 3 Zrotation Xrotation Yrotation
                JOINT rMid2
                {
                  OFFSET -3.10165 -0.590103 1.0647
                  CHANNELS 3 Zrotation Xrotation Yrotation
                  End Site
                  {
                    OFFSET -2.48547 -0.328903 0.83742
                  }
                }
              }
              JOINT rRing1
              {
                OFFSET -8.82822 0.546677 1.51678
                CHANNELS 3 Zrotation Xrotation Yrotation
                JOINT rRing2
                {
                  OFFSET -2.60934 -0.819778 -0.0198488
                  CHANNELS 3 Zrotation Xrotation Yrotation
                  End Site
                  {
                    OFFSET -2.33842 -0.294052 0.168128
                  }
                }
              }
              JOINT rPinky1
              {
                OFFSET -8.27202 -0.0477905 -0.4584
                CHANNELS 3 Zrotation Xrotation Yrotation
                JOINT rPinky2
                {
                  OFFSET -1.82734 -0.647385 -0.700984
                  CHANNELS 3 Zrotation Xrotation Yrotation
                  End Site
                  {
                    OFFSET -1.69225 -0.51767 -0.607171
                  }
                }
              }
            }
          }
        }
      }
      JOINT lCollar
      {
        OFFSET 2.68224 19.2634 -4.8768
        CHANNELS 3 Zrotation Xrotation Yrotation
        JOINT lShldr
        {
          OFFSET 8.77824 -1.95073 1.46304
          CHANNELS 3 Zrotation Xrotation Yrotation
          JOINT lForeArm
          {
            OFFSET 28.1742 -1.7115 0.48768
            CHANNELS 3 Zrotation Xrotation Yrotation
            JOINT lHand
            {
              OFFSET 22.5879 0.773209 7.07136
              CHANNELS 3 Zrotation Xrotation Yrotation
              JOINT lThumb1
              {
                OFFSET 1.2192 -0.487915 3.41376
                CHANNELS 3 Zrotation Xrotation Yrotation
                JOINT lThumb2
                {
                  OFFSET 3.37035 -0.52449 3.41376
                  CHANNELS 3 Zrotation Xrotation Yrotation
                  End Site
                  {
                    OFFSET 1.78271 -1.18214 1.43049
                  }
                }
              }
              JOINT lIndex1
              {
                OFFSET 7.75947 0.938293 5.60832
                CHANNELS 3 Zrotation Xrotation Yrotation
                JOINT lIndex2
                {
                  OFFSET 2.54057 -0.884171 1.56538
                  CHANNELS 3 Zrotation Xrotation Yrotation
                  End Site
                  {
                    OFFSET 1.62519 -0.234802 1.16502
                  }
                }
              }
              JOINT lMid1
              {
                OFFSET 8.24714 1.18213 3.41376
                CHANNELS 3 Zrotation Xrotation Yrotation
                JOINT lMid2
                {
                  OFFSET 3.10165 -0.590103 1.0647
                  CHANNELS 3 Zrotation Xrotation Yrotation
                  End Site
                  {
                    OFFSET 2.48547 -0.328903 0.83742
                  }
                }
              }
              JOINT lRing1
              {
                OFFSET 8.82822 0.546677 1.51678
                CHANNELS 3 Zrotation Xrotation Yrotation
                JOINT lRing2
                {
                  OFFSET 2.60934 -0.819778 -0.0198488
                  CHANNELS 3 Zrotation Xrotation Yrotation
                  End Site
                  {
                    OFFSET 2.33842 -0.294052 0.168128
                  }
                }
              }
              JOINT lPinky1
              {
                OFFSET 8.27202 -0.0477905 -0.4584
                CHANNELS 3 Zrotation Xrotation Yrotation
                JOINT lPinky2
                {
                  OFFSET 1.82734 -0.647385 -0.700984
                  CHANNELS 3 Zrotation Xrotation Yrotation
                  End Site
                  {
                    OFFSET 1.69225 -0.51767 -0.607171
                  }
                }
              }
            }
          }
        }
      }
    }
  }
  JOINT rButtock
  {
    OFFSET -8.77824 4.35084 1.2192
    CHANNELS 3 Zrotation Xrotation Yrotation
    JOINT rThigh
    {
      OFFSET 0 -1.70687 -2.19456
      CHANNELS 3 Zrotation Xrotation Yrotation
      JOINT rShin
      {
        OFFSET 0 -36.8199 0.73152
        CHANNELS 3 Zrotation Xrotation Yrotation
        JOINT rFoot
        {
          OFFSET 0.73152 -45.1104 -5.12064
          CHANNELS 3 Zrotation Xrotation Yrotation
          End Site
          {
            OFFSET -1.1221 -3.69964 12.103
          }
        }
      }
    }
  }
  JOINT lButtock
  {
    OFFSET 8.77824 4.35084 1.2192
    CHANNELS 3 Zrotation Xrotation Yrotation
    JOINT lThigh
    {
      OFFSET 0 -1.70687 -2.19456
      CHANNELS 3 Zrotation Xrotation Yrotation
      JOINT lShin
      {
        OFFSET 0 -36.8199 0.73152
        CHANNELS 3 Zrotation Xrotation Yrotation
        JOINT lFoot
        {
          OFFSET -0.73152 -45.1104 -5.12064
          CHANNELS 3 Zrotation Xrotation Yrotation
          End Site
          {
            OFFSET 1.1221 -3.69964 12.103
          }
        }
      }
    }
  }
}
MOTION
Frames:	4
Frame Time:	0.03333
-2.9178845696151257 63.045716285705566 -0.22694726940244436 -6.552350734954972 5.016881947740616 2.5718930043729036 -2.5494250970981467 14.949986357215609 4.0013408205259715 2.5140050167229298 -9.966339683089451 1.2694921495890679 -4.906166715728825 15.727210658344285 -3.293577622265621 8.528694999602134 -25.254576644797957 -4.463759568374644 -0.10365751216505227 0.020818630033610428 0.0988932417755568 0.10960372544607727 -0.16356638203570348 -0.0876025121907026 -0.12958853879241725 -0.0730947635067724 -0.13932753477520918 48.979518764593216 30.86685087824364 16.54724487764331 -24.477784353134282 -30.35923804931746 67.72466558318057 -5.015628608027919 -11.788933828198688 -5.467426411717222 -0.09662855381802156 0.06426839819097052 -0.17711753070986166 0.10687367749048202 -0.15929724700018105 -0.21568424721919155 0.12284495428664613 -0.16309293786843052 -0.16893944639582922 7.924145564654197 5.661040930345927 0.29815856800368395 -0.21240666355208457 -0.03661258871561866 0.11624354977340236 2.9776310005074023 0.8362634958189141 0.27763619742532286 0.06790456678950317 0.03762300314553098 -0.07667657073642262 10.489629503708102 0.8311521664422175 0.14551355172912508 0.09754506648705942 -0.008721377837739368 -0.19125554204411205 2.046797025605609 -0.9118750773131304 -0.15132636287792328 -0.10191629417437503 -0.00292790999811406 0.01423096593998602 -58.157291763663544 31.855992043655714 -26.97756357991996 23.57543440150556 -28.61769007512595 -64.34646768007059 5.136044416208421 -14.17627960350949 4.1810260221160815 -0.09131781493407219 -0.0880055733930127 -0.1488110923552132 -0.11626828252871721 -0.1115577998789356 -0.019279329510271694 -0.03707928940510755 0.00982130843342918 0.003323153835475657 -7.984822403919652 5.563795258264224 -0.37954507444114605 -0.06871394420614968 -0.04217540426862381 0.048553413571240565 -2.8966023319494254 1.173266096684401 -0.004476868835826014 0.10174855433331303 0.05250393095415247 0.028298114061597514 -10.45031920371374 0.8799889795031606 -0.00375639060009545 0.046375276917094074 0.14706144334977922 0.07454223000228619 -2.2622672958047088 -0.868877222218902 0.1550311535332734 0.022393522245827274 3.089593382372955e-05 -0.08503630873390833 -32.718566388652874 -36.73578313013089 -28.46212568658974 -5.587412771753659 63.54616075464186 6.454760138320184 -4.676930626144388 -10.315115609093336 -10.751224895145944 -0.026238972109397345 0.19790291693212117 -0.023981834712546137 38.77644557864477 -34.25806370681706 31.462822449367685 5.26413095371367 63.8918844398604 -6.52403960084527 5.0423478811741855 -10.297106107799305 14.094320748563922
-2.86636995151639 62.97544836997986 -0.17988369800150394 -6.54173491343748 5.014675369751879 2.5722503086438597 -2.5493977763414666 14.930171978433403 3.9964324758336707 2.517809005203804 -9.958661696688711 1.2812869257903279 -4.892361195868937 15.706477619118711 -3.288249861269599 8.515569083564662 -25.227588859839944 -4.464102785380437 -0.11233494734043611 0.02316202524915949 0.10289957461059242 0.10886467763354074 -0.15280637949370043 -0.1037119402350008 -0.1398009522620557 -0.07307064440126579 -0.13311227607390913 48.92012343957079 30.826037082858228 16.53744355618434 -24.457536257339783 -30.33449568904909 67.6571013519108 -5.003870864258565 -11.769573656996288 -5.464176095445942 -0.09126856286685406 0.06887472045590944 -0.1600955253594263 0.10989688997185891 -0.15794689725692837 -0.23024119460948703 0.12540179291375808 -0.15211618354198533 -0.1580353695510212 7.91582895556606 5.641706372352914 0.2967105678996413 -0.21156815110975974 -0.037908723832334366 0.10587606966526347 2.981732955990818 0.8434787369033864 0.282525118767171 0.07048130901474338 0.034456703537127605 -0.07577669331327344 10.481167753100102 0.8322523605071184 0.12907349984031596 0.0894865104835022 -0.022157320430506482 -0.1909157401329039 2.048041614138432 -0.9005482757917221 -0.15546567095836258 -0.0994398169917165 -0.005501183767916364 0.013491064353803232 -58.11887877977139 31.843267401231984 -26.939714086634332 23.54637365413445 -28.58714205406307 -64.27821359969465 5.120246188658181 -14.163174178039528 4.1902583034398235 -0.09376494364764083 -0.08028761971345695 -0.1563329449003955 -0.11484664268600253 -0.11754414052133444 -0.014087105080592627 -0.03903736590193269 0.01595118977010406 0.005149162221396253 -7.980994082889859 5.561940861904566 -0.3828736177227637 -0.08160816742037016 -0.039149470383749496 0.05138463370391663 -2.894909939139143 1.1754876157119478 -0.0019092513164301267 0.10063558034414474 0.05043240928408165 0.021822134233073394 -10.433651834591616 0.8689198041795088 -0.0014040307612607462 0.049314446055168076 0.1424862838229285 0.06876282274739759 -2.2509688822570384 -0.8638290720920277 0.15033006239360056 0.02118425859761767 0.0031004256355097724 -0.08941403310506336 -32.68049491421922 -36.711331052902246 -28.436263175297487 -5.5864911231025305 63.47682750437706 6.437335045087012 -4.672373182420697 -10.313203156125732 -10.725018313074251 -0.023875086326338245 0.19062791169241133 -0.03130710587567903 38.72355259371219 -34.21841445868514 31.425235918365107 5.25134398581376 63.826594661584245 -6.5062418354155085 5.0407607159658046 -10.287714597690538 14.084574068618315
-2.820842247456312 62.95626163482666 -0.1241904916241765 -6.532477445791174 5.012930256418941 2.562468410535344 -2.550748232806425 14.930096846352532 3.998801270815196 2.5149191948546537 -9.96522636225474 1.2886163590999864 -4.89188222885339 15.698230165695922 -3.2844947513299734 8.511720271967361 -25.226306491823273 -4.457421579711695 -0.12139487310934069 0.020369331652270527 0.11038514177580905 0.11089900678914671 -0.14829706725931685 -0.09794656688442246 -0.14048962742946336 -0.07274460959010345 -0.12887691845826654 48.898700551239045 30.81185761014128 16.531902565220168 -24.45170839843047 -30.32191789569251 67.63035433112103 -5.002944092965559 -11.759526448727199 -5.462366095315889 -0.0918660976975244 0.06882757614238048 -0.16244489699049913 0.11573499416492732 -0.1628747720213868 -0.2252441641796822 0.12895082323952017 -0.15396588414658943 -0.1557118245727475 7.909368450384874 5.634070220860839 0.2988061019535129 -0.2136629381116909 -0.04782711900254491 0.11149101877154287 2.982719704882473 0.8343349278737375 0.2828697231551393 0.06966905011204076 0.034179093699963616 -0.07668911053685194 10.480112488873335 0.8338963016629758 0.12294820753698968 0.0843953781896246 -0.02289081871434238 -0.19181241590487966 2.045150736572224 -0.9029194186507744 -0.1621689146593483 -0.09916212711327317 -0.006091888409416686 0.012595135633767967 -58.10187160873806 31.832796721234352 -26.925527783728217 23.53387782304791 -28.58052701585191 -64.24880963531776 5.119036391401443 -14.156394361514645 4.1900585204066 -0.0961082321414841 -0.07333843584149789 -0.1538541198402098 -0.11416212966512031 -0.11758597543000077 -0.011698726666056683 -0.03911159084830369 0.014493264547423683 0.01546883100534505 -7.9788664789634005 5.557156741277795 -0.38532848376000145 -0.08116580594990605 -0.03963372012373282 0.04401966206623304 -2.8961536738983202 1.17589081031639 -0.004845592329300921 0.09477578496437628 0.04414089792400076 0.023378990477013178 -10.429020966334347 0.8703071863546675 0.00035420934148863 0.05148393825114627 0.14133785154701434 0.06367305115526871 -2.245988820578453 -0.8609710648112006 0.15270974298911533 0.0201301683096143 0.004598478219563975 -0.0908544026071427 -32.66326576203786 -36.69992805208291 -28.423487306454977 -5.5844010852165065 63.44923354013021 6.431791065915077 -4.668310073638185 -10.316102571428404 -10.721509303388157 -0.019581405298486086 0.19252286230026674 -0.02958002851101784 38.71138461170581 -34.198156117606885 31.41386706849162 5.252253254747018 63.80228601832817 -6.499569594370053 5.04451305114108 -10.276806785586027 14.074065822580248
-2.7786036022007465 62.97522187232971 -0.06939992308616638 -6.527944761503225 5.014100780087952 2.5499892280349075 -2.5519593107236327 14.943289356734413 4.003207169716677 2.508832642530526 -9.977067348954604 1.28978453489147 -4.900891248368636 15.700613901716256 -3.282931705227098 8.514242319318388 -25.241122879680326 -4.448300288961966 -0.12741712560573498 0.016242189846290323 0.11633765163747516 0.11581695643496746 -0.1474039133036319 -0.08234171906505895 -0.13493582986059674 -0.07163267613756653 -0.12748185232029144 48.90689336314847 30.817106610518437 16.531356150086566 -24.45701033277369 -30.318755518106794 67.64111870925296 -5.008837692445634 -11.760255571421098 -5.461243382971068 -0.09661628082185669 0.06565802152195077 -0.17477445565942995 0.12227319274792202 -0.1689061492236254 -0.21018434411174458 0.1329702828443669 -0.16119585282645948 -0.1587459226681141 7.905580256716456 5.636051829493789 0.3034562334786751 -0.21825138449091142 -0.059042076176294284 0.12695061834933782 2.9805310561403076 0.817892634829107 0.27882635788819754 0.06855935781532525 0.03655375837530664 -0.07835658382883419 10.484922649596315 0.8322786140467406 0.1264643675773711 0.08684055923206273 -0.014296039500086259 -0.1932900846431296 2.042520259968123 -0.9133136859070644 -0.16888042929253208 -0.10002764014716072 -0.005499049333800735 0.011833356097899981 -58.10532085426892 31.829583117229863 -26.93155542567075 23.53677040816141 -28.593244828086476 -64.2538093337902 5.127352146715933 -14.156098102059396 4.1841854114940356 -0.09711739259135349 -0.06769995459909368 -0.1465196706103797 -0.11660728402713198 -0.11178042135719571 -0.010119512224755689 -0.0381427712032197 0.00975652835801984 0.02412374790080902 -7.980079691314724 5.55252629990735 -0.3861907417818627 -0.07089907113202486 -0.04036092182692761 0.0307426280933745 -2.897548313149472 1.1737269210099655 -0.011826899434700205 0.08581807190918388 0.03842712451816775 0.030730195014650963 -10.434126532738931 0.8770321479227798 -0.00035191482481432886 0.05245974816795895 0.14136762690292734 0.06167522082303998 -2.2481420377142993 -0.8617415955269426 0.15931453591651765 0.01910446599534879 0.005180858568013344 -0.0918761562182943 -32.66601491317879 -36.70077499553999 -28.425229004693332 -5.58056806843166 63.45941052199353 6.438377929595909 -4.664200007305131 -10.320344972676628 -10.732417969266313 -0.016097368491544896 0.20095174262288562 -0.021661384663740086 38.72893478277816 -34.1998363441427 31.422985371033587 5.261243491242047 63.81492186829269 -6.502062186530284 5.05049202798578 -10.270669006843125 14.0679271900637
